<svg width="11" height="15" viewBox="0 0 11 15" fill="none" xmlns="http://www.w3.org/2000/svg">
<g id="Group 3021">
<g id="wishlist">
<g id="Group 4">
<g id="Group 3">
<path id="Path 1" d="M10.465 4.26892C10.4432 4.21596 10.4111 4.16785 10.3706 4.12738L6.87464 0.628731C6.79149 0.546198 6.67906 0.499919 6.56191 0.5H0.876182C0.643804 0.5 0.420942 0.592312 0.256626 0.756627C0.0923108 0.920943 0 1.1438 0 1.37618V13.6238C0 13.8562 0.0923108 14.0791 0.256626 14.2434C0.420942 14.4077 0.643804 14.5 0.876182 14.5H10.0626C10.1786 14.5 10.2899 14.4539 10.3719 14.3719C10.4539 14.2899 10.5 14.1786 10.5 14.0626V4.43742C10.4996 4.37948 10.4877 4.3222 10.465 4.26892ZM6.99933 1.99355L9.00578 4H6.99933V1.99355ZM9.62449 13.6238H0.876182V1.37618H6.12584V4C6.12584 4.23238 6.21816 4.45524 6.38247 4.61955C6.54679 4.78387 6.76964 4.87618 7.00202 4.87618H9.62449V13.6238Z" fill="black"/>
</g>
</g>
<g id="Group 6">
<g id="Group 5">
<path id="Path 2" d="M4.81148 3.12451H2.18699C2.0708 3.12451 1.95937 3.17067 1.87721 3.25283C1.79505 3.33499 1.7489 3.44641 1.7489 3.5626C1.7489 3.67879 1.79505 3.79022 1.87721 3.87238C1.95937 3.95454 2.0708 4.00069 2.18699 4.00069H4.81148C4.92767 4.00069 5.03911 3.95454 5.12127 3.87238C5.20342 3.79022 5.24957 3.67879 5.24957 3.5626C5.24957 3.44641 5.20342 3.33499 5.12127 3.25283C5.03911 3.17067 4.92767 3.12451 4.81148 3.12451Z" fill="black"/>
</g>
</g>
<g id="Group 8">
<g id="Group 7">
<path id="Path 3" d="M4.81148 4.875H2.18699C2.0708 4.875 1.95937 4.92116 1.87721 5.00332C1.79505 5.08547 1.7489 5.1969 1.7489 5.31309C1.7489 5.42927 1.79505 5.54071 1.87721 5.62287C1.95937 5.70502 2.0708 5.75118 2.18699 5.75118H4.81148C4.92767 5.75118 5.03911 5.70502 5.12127 5.62287C5.20342 5.54071 5.24957 5.42927 5.24957 5.31309C5.24957 5.1969 5.20342 5.08547 5.12127 5.00332C5.03911 4.92116 4.92767 4.875 4.81148 4.875Z" fill="black"/>
</g>
</g>
</g>
</g>
</svg>
