<svg width="16" height="20" viewBox="0 0 16 20" fill="none" xmlns="http://www.w3.org/2000/svg">
<g id="Group 3020">
<path id="Vector" d="M14.712 1.644H12.678V0.865C12.678 0.751407 12.6556 0.638925 12.6122 0.533979C12.5687 0.429032 12.505 0.333675 12.4246 0.253353C12.3443 0.17303 12.249 0.109315 12.144 0.0658442C12.0391 0.0223739 11.9266 0 11.813 0L3.765 0C3.53559 0 3.31557 0.0911337 3.15335 0.253353C2.99113 0.415572 2.9 0.635588 2.9 0.865V1.644H0.865001C0.751323 1.644 0.63876 1.66641 0.533748 1.70994C0.428736 1.75347 0.333335 1.81728 0.252999 1.89771C0.172664 1.97813 0.108969 2.07361 0.0655575 2.17867C0.0221461 2.28373 -0.000130841 2.39632 5.78088e-07 2.51V18.335C5.78088e-07 18.5644 0.0911342 18.7844 0.253353 18.9466C0.415572 19.1089 0.635588 19.2 0.865001 19.2H14.712C14.9414 19.2 15.1614 19.1089 15.3236 18.9466C15.4859 18.7844 15.577 18.5644 15.577 18.335V2.51C15.5771 2.39632 15.5549 2.28373 15.5114 2.17867C15.468 2.07361 15.4043 1.97813 15.324 1.89771C15.2437 1.81728 15.1483 1.75347 15.0433 1.70994C14.9382 1.66641 14.8257 1.644 14.712 1.644ZM4.63 1.731H10.948V3.289H4.63V1.731ZM13.847 17.47H1.731V3.375H2.9V4.154C2.9 4.38341 2.99113 4.60343 3.15335 4.76565C3.31557 4.92787 3.53559 5.019 3.765 5.019H11.813C12.0424 5.019 12.2624 4.92787 12.4246 4.76565C12.5869 4.60343 12.678 4.38341 12.678 4.154V3.375H13.846L13.847 17.47ZM12.679 10.125C12.679 10.3544 12.5879 10.5744 12.4256 10.7366C12.2634 10.8989 12.0434 10.99 11.814 10.99C10.076 10.99 9.773 9.259 9.131 9.259C8.489 9.259 8.182 10.99 6.448 10.99C4.714 10.99 4.407 9.26 3.765 9.26C3.53546 9.26 3.31531 9.16881 3.153 9.0065C2.99069 8.84419 2.8995 8.62404 2.8995 8.3945C2.8995 8.16495 2.99069 7.94481 3.153 7.7825C3.31531 7.62019 3.53546 7.529 3.765 7.529C5.5 7.529 5.805 9.26 6.447 9.26C7.089 9.26 7.4 7.529 9.13 7.529C10.86 7.529 11.171 9.26 11.813 9.26C11.9266 9.26 12.0391 9.28237 12.144 9.32584C12.249 9.36931 12.3443 9.43303 12.4246 9.51335C12.505 9.59368 12.5687 9.68903 12.6122 9.79398C12.6556 9.89893 12.679 10.0114 12.679 10.125ZM5.214 14.453C4.98446 14.453 4.76431 14.3618 4.602 14.1995C4.43969 14.0372 4.3485 13.817 4.3485 13.5875C4.3485 13.358 4.43969 13.1378 4.602 12.9755C4.76431 12.8132 4.98446 12.722 5.214 12.722H10.363C10.5925 12.722 10.8127 12.8132 10.975 12.9755C11.1373 13.1378 11.2285 13.358 11.2285 13.5875C11.2285 13.817 11.1373 14.0372 10.975 14.1995C10.8127 14.3618 10.5925 14.453 10.363 14.453H5.214Z" fill="white"/>
</g>
</svg>
