<svg width="18" height="18" viewBox="0 0 18 18" fill="none" xmlns="http://www.w3.org/2000/svg">
<g id="carbon:skill-level">
<path id="Vector" d="M13.45 15.75V15.8H13.5H15.75H15.8V15.75V3.375V3.325H15.75H13.5H13.45V3.375V15.75ZM7.825 15.75V15.8H7.875H10.125H10.175V15.75V7.875V7.825H10.125H7.875H7.825V7.875V15.75ZM2.2 15.75V15.8H2.25H4.5H4.55V15.75V11.25V11.2H4.5H2.25H2.2V11.25V15.75ZM16.825 16.825H12.425V2.3H16.825V16.825ZM11.2 16.825H6.8V6.8H11.2V16.825ZM5.575 16.825H1.175V10.175H5.575V16.825Z" fill="black" stroke="#F4F2F0" stroke-width="0.1"/>
</g>
</svg>
