<svg width="20" height="20" viewBox="0 0 20 20" fill="none" xmlns="http://www.w3.org/2000/svg">
<g id="ic:round-auto-graph">
<path id="Vector" d="M11.7168 8.28328L10.8334 7.87495C10.7607 7.84181 10.699 7.78844 10.6558 7.72121C10.6125 7.65398 10.5895 7.57572 10.5895 7.49578C10.5895 7.41585 10.6125 7.33759 10.6558 7.27036C10.699 7.20313 10.7607 7.14976 10.8334 7.11662L11.7168 6.70828L12.1251 5.83328C12.1582 5.76054 12.2116 5.69886 12.2788 5.65562C12.3461 5.61237 12.4243 5.58937 12.5043 5.58937C12.5842 5.58937 12.6625 5.61237 12.7297 5.65562C12.7969 5.69886 12.8503 5.76054 12.8834 5.83328L13.2918 6.71662L14.1668 7.12495C14.2395 7.1581 14.3012 7.21147 14.3444 7.2787C14.3877 7.34593 14.4107 7.42418 14.4107 7.50412C14.4107 7.58406 14.3877 7.66231 14.3444 7.72954C14.3012 7.79677 14.2395 7.85014 14.1668 7.88329L13.2834 8.29162L12.8751 9.16662C12.842 9.23936 12.7886 9.30104 12.7214 9.34429C12.6541 9.38754 12.5759 9.41053 12.4959 9.41053C12.416 9.41053 12.3377 9.38754 12.2705 9.34429C12.2033 9.30104 12.1499 9.23936 12.1168 9.16662L11.7168 8.28328ZM3.70843 10.8333L4.11676 9.94995L5.0001 9.54162C5.07284 9.50847 5.13452 9.4551 5.17777 9.38787C5.22102 9.32064 5.24401 9.24239 5.24401 9.16245C5.24401 9.08251 5.22102 9.00426 5.17777 8.93703C5.13452 8.8698 5.07284 8.81643 5.0001 8.78329L4.11676 8.37495L3.70843 7.49995C3.67631 7.42728 3.62377 7.36551 3.55719 7.32215C3.49062 7.27879 3.41288 7.25571 3.33343 7.25571C3.25398 7.25571 3.17624 7.27879 3.10967 7.32215C3.04309 7.36551 2.99055 7.42728 2.95843 7.49995L2.5501 8.38329L1.66676 8.79162C1.59402 8.82476 1.53234 8.87813 1.4891 8.94536C1.44585 9.01259 1.42285 9.09085 1.42285 9.17078C1.42285 9.25072 1.44585 9.32898 1.4891 9.39621C1.53234 9.46344 1.59402 9.51681 1.66676 9.54995L2.5501 9.95828L2.95843 10.8333C3.1001 11.1583 3.56676 11.1583 3.70843 10.8333ZM7.46676 6.65828L7.99177 5.49162L9.15843 4.96662C9.23118 4.93347 9.29285 4.8801 9.3361 4.81287C9.37935 4.74564 9.40234 4.66739 9.40234 4.58745C9.40234 4.50751 9.37935 4.42926 9.3361 4.36203C9.29285 4.2948 9.23118 4.24143 9.15843 4.20829L7.99177 3.68328L7.46676 2.51662C7.43362 2.44387 7.38025 2.3822 7.31302 2.33895C7.24579 2.2957 7.16754 2.27271 7.0876 2.27271C7.00766 2.27271 6.92941 2.2957 6.86218 2.33895C6.79495 2.3822 6.74158 2.44387 6.70843 2.51662L6.18343 3.68328L5.01676 4.20829C4.94402 4.24143 4.88234 4.2948 4.8391 4.36203C4.79585 4.42926 4.77285 4.50751 4.77285 4.58745C4.77285 4.66739 4.79585 4.74564 4.8391 4.81287C4.88234 4.8801 4.94402 4.93347 5.01676 4.96662L6.18343 5.49162L6.70843 6.65828C6.8501 6.98328 7.31676 6.98328 7.46676 6.65828ZM18.6168 6.89162C18.5367 6.81178 18.4412 6.74907 18.3361 6.70732C18.231 6.66557 18.1185 6.64565 18.0054 6.64877C17.8924 6.65188 17.7812 6.67798 17.6785 6.72546C17.5759 6.77294 17.484 6.84082 17.4084 6.92495L12.0834 12.9083L9.34176 10.1666C9.26467 10.0894 9.1731 10.0281 9.07229 9.98626C8.97147 9.94444 8.86341 9.92291 8.75426 9.92291C8.64512 9.92291 8.53706 9.94444 8.43624 9.98626C8.33543 10.0281 8.24386 10.0894 8.16676 10.1666L3.13343 15.2083C2.79176 15.55 2.79176 16.1166 3.13343 16.4583C3.4751 16.8 4.04176 16.8 4.38343 16.4583L8.75843 12.075L11.4668 14.7833C11.8084 15.125 12.3584 15.1083 12.6751 14.75L18.6501 8.02495C18.9418 7.69995 18.9251 7.19995 18.6168 6.89162Z" fill="black"/>
</g>
</svg>
