<svg width="14" height="14" viewBox="0 0 14 14" fill="none" xmlns="http://www.w3.org/2000/svg">
<g id="solar:pen-2-outline">
<path id="Vector" fill-rule="evenodd" clip-rule="evenodd" d="M8.225 1.39474C8.65268 0.975616 9.22849 0.742218 9.82729 0.745269C10.4261 0.74832 10.9995 0.987574 11.4229 1.41103C11.8463 1.83449 12.0854 2.40794 12.0883 3.00674C12.0913 3.60554 11.8578 4.18131 11.4386 4.60891L7.00875 9.03874C6.75909 9.28841 6.60625 9.44124 6.43709 9.57366C6.23677 9.72973 6.02005 9.86352 5.79075 9.97266C5.59592 10.0654 5.39117 10.1337 5.05634 10.2451L3.49767 10.7648L3.12317 10.8897C2.95888 10.9445 2.78254 10.9526 2.61394 10.9128C2.44534 10.8731 2.29115 10.7871 2.16866 10.6647C2.04618 10.5422 1.96024 10.388 1.9205 10.2194C1.88076 10.0508 1.88878 9.87445 1.94367 9.71016L2.58825 7.77699C2.69967 7.44216 2.76792 7.23741 2.86067 7.04257C2.97001 6.81345 3.10399 6.59692 3.26025 6.39682C3.39267 6.22707 3.54492 6.07424 3.79459 5.82516L8.225 1.39474ZM3.47667 9.84899L2.98434 9.35607L3.409 8.08149C3.53267 7.71049 3.584 7.55941 3.6505 7.41941C3.73217 7.24732 3.83309 7.08516 3.94975 6.93524C4.04542 6.81274 4.15742 6.69957 4.43392 6.42249L7.87034 2.98666C8.04889 3.43276 8.31667 3.8377 8.65725 4.17666C8.99627 4.51703 9.4012 4.7846 9.84725 4.96299L6.41084 8.39882C6.13375 8.67591 6.02117 8.78791 5.89867 8.88299C5.74849 8.99999 5.58617 9.10052 5.4145 9.18282C5.2745 9.24932 5.12284 9.30066 4.75184 9.42432L3.47725 9.84957L3.47667 9.84899ZM10.5443 4.26532C10.4545 4.24546 10.3658 4.22034 10.2789 4.19007C9.90094 4.05793 9.55788 3.84172 9.27559 3.55774C8.9917 3.27537 8.77551 2.93233 8.64325 2.55441C8.6128 2.4675 8.58747 2.37887 8.56742 2.28899L8.84334 2.01366C9.10686 1.75864 9.46005 1.6174 9.82676 1.62041C10.1935 1.62342 10.5443 1.77042 10.8036 2.02973C11.0629 2.28904 11.2099 2.63987 11.2129 3.00657C11.2159 3.37327 11.0747 3.72647 10.8197 3.98999L10.5443 4.26532ZM1.89584 12.8333C1.89584 12.7173 1.94193 12.606 2.02398 12.524C2.10602 12.4419 2.2173 12.3958 2.33334 12.3958H11.6667V13.2708H2.33334C2.2173 13.2708 2.10602 13.2247 2.02398 13.1427C1.94193 13.0606 1.89584 12.9494 1.89584 12.8333Z" fill="black"/>
</g>
</svg>
