<svg width="28" height="28" viewBox="0 0 28 28" fill="none" xmlns="http://www.w3.org/2000/svg">
<g id="uit:favorite">
<path id="Vector" d="M25.572 11.815C25.5945 11.6632 25.5868 11.5085 25.5494 11.3597C25.512 11.2109 25.4456 11.0709 25.354 10.9478C25.2624 10.8247 25.1475 10.7209 25.0157 10.6423C24.884 10.5636 24.738 10.5118 24.5862 10.4897L17.9933 9.52599L15.0463 3.52116C14.94 3.33761 14.7872 3.18526 14.6034 3.07939C14.4195 2.97352 14.2111 2.91785 13.9989 2.91797C13.7868 2.91809 13.5784 2.97399 13.3947 3.08006C13.2109 3.18614 13.0583 3.33866 12.9522 3.52232L10.0063 9.52599L3.41351 10.4897C3.19831 10.5209 2.99613 10.6117 2.82979 10.7518C2.66344 10.8918 2.53955 11.0756 2.4721 11.2823C2.40465 11.489 2.39631 11.7105 2.44804 11.9217C2.49976 12.1329 2.60949 12.3255 2.76484 12.4777L7.54001 17.1595L6.41301 23.7675C6.37738 23.982 6.40227 24.2021 6.48488 24.4032C6.56749 24.6043 6.70455 24.7784 6.88065 24.9059C7.05675 25.0334 7.26492 25.1093 7.48176 25.125C7.69861 25.1407 7.91554 25.0956 8.10817 24.9948L13.9998 21.8798L19.8903 24.9937C20.0827 25.0955 20.2998 25.1415 20.517 25.1265C20.7341 25.1114 20.9428 25.0359 21.1193 24.9084C21.2958 24.781 21.4331 24.6067 21.5157 24.4053C21.5983 24.2038 21.6229 23.9833 21.5867 23.7687L20.4597 17.1595L25.236 12.4765C25.417 12.2984 25.535 12.0662 25.572 11.815ZM19.4248 16.54C19.3577 16.606 19.3075 16.6873 19.2785 16.7768C19.2494 16.8664 19.2424 16.9616 19.258 17.0545L20.4363 23.9623L14.2717 20.7038C14.1877 20.6602 14.0945 20.6374 13.9998 20.6374C13.9052 20.6374 13.812 20.6602 13.728 20.7038L7.56334 23.9635L8.74167 17.0545C8.75727 16.9616 8.75025 16.8664 8.72121 16.7768C8.69216 16.6873 8.64196 16.606 8.57484 16.54L3.58151 11.6435L10.4788 10.6355C10.5726 10.6215 10.6616 10.585 10.7382 10.5292C10.8148 10.4733 10.8767 10.3997 10.9187 10.3147L13.9998 4.03682L17.0798 10.3158C17.1219 10.401 17.184 10.4747 17.2608 10.5306C17.3376 10.5865 17.4269 10.6229 17.5208 10.6367L24.4193 11.6435L19.4248 16.54Z" fill="black"/>
</g>
</svg>
