<svg width="48" height="48" viewBox="0 0 48 48" fill="none" xmlns="http://www.w3.org/2000/svg">
<g id="Group 3473">
<g id="Ellipse 229">
<path id="Vector" d="M24 0.25C10.8832 0.25 0.25 10.8832 0.25 24C0.25 37.1168 10.8832 47.75 24 47.75C37.1168 47.75 47.75 37.1168 47.75 24C47.75 10.8832 37.1168 0.25 24 0.25Z" stroke="white" stroke-opacity="0.5" stroke-width="0.5"/>
</g>
<path id="Icon material-bookmark-border" d="M29.5857 13.9438H18.4127C17.8216 13.946 17.2555 14.1825 16.8386 14.6015C16.4216 15.0205 16.1879 15.5877 16.1887 16.1788L16.1777 34.0568L23.9997 30.7048L31.8217 34.0568V16.1788C31.8201 15.5864 31.584 15.0187 31.165 14.5999C30.746 14.181 30.1782 13.9452 29.5857 13.9438ZM29.5857 30.7038L23.9987 28.2678L18.4127 30.7038V16.1788H29.5857V30.7038Z" fill="white"/>
</g>
</svg>
