<svg width="12" height="15" viewBox="0 0 12 15" fill="none" xmlns="http://www.w3.org/2000/svg">
<path id="Icon material-bookmark-border" d="M6.05436 12.027L6 12.0058L5.94564 12.027L0.150149 14.2807L0.158438 2.05581L0.158438 2.05549C0.157892 1.68872 0.317558 1.33343 0.607987 1.06858C0.898843 0.803343 1.29661 0.651416 1.71465 0.65H10.2847C10.7039 0.650884 11.103 0.802457 11.3955 1.06773C11.6874 1.33254 11.8488 1.68816 11.85 2.05584C11.85 2.05595 11.85 2.05605 11.85 2.05615L11.85 14.2807L6.05436 12.027ZM10.2297 12.3056L10.4348 12.3867V12.1661V2.05571V1.90571H10.2848H1.7144H1.5644V2.05571V12.1661V12.3868L1.76959 12.3056L5.99924 10.6318L10.2297 12.3056Z" fill="black" stroke="#F4F2F0" stroke-width="0.3"/>
</svg>
