<svg width="15" height="15" viewBox="0 0 15 15" fill="none" xmlns="http://www.w3.org/2000/svg">
<g id="Group 3018">
<g id="Group 85">
<g id="conversation">
<g id="Group 34">
<g id="Group 33">
<path id="Path 18" d="M14.1718 11.5506L13.3456 9.14679C13.7882 8.23813 13.9946 7.23257 13.9458 6.22304C13.8969 5.21351 13.5945 4.23257 13.0663 3.37084C12.5381 2.50912 11.8012 1.79443 10.9238 1.29279C10.0464 0.791146 9.05665 0.518747 8.0461 0.500757C7.25591 0.488212 6.47102 0.631715 5.73639 0.923043C5.00176 1.21437 4.33184 1.6478 3.76502 2.19849C3.19819 2.74918 2.7456 3.4063 2.43319 4.13221C2.12077 4.85812 1.95466 5.63855 1.94439 6.42877C1.13628 7.0342 0.56233 7.90041 0.319807 8.88061C0.0772827 9.8608 0.181097 10.8947 0.613659 11.8071L0.0422844 13.4641C0.00199594 13.5816 -0.00972835 13.707 0.0080819 13.8299C0.0258921 13.9529 0.0727248 14.0698 0.144704 14.171C0.216682 14.2723 0.311738 14.3549 0.422002 14.4121C0.532266 14.4693 0.654568 14.4995 0.778786 14.5C0.865894 14.5 0.952394 14.4855 1.03476 14.4571L2.69175 13.8858C3.27676 14.1628 3.91572 14.3071 4.563 14.3086H4.57271C5.2617 14.3088 5.94098 14.1461 6.55514 13.8338C7.16929 13.5215 7.70092 13.0685 8.10666 12.5116C8.96792 12.4889 9.8143 12.2818 10.5887 11.9042L12.9925 12.7305C13.0904 12.7643 13.1934 12.7817 13.297 12.7819C13.4446 12.7812 13.5899 12.7453 13.7209 12.6773C13.8519 12.6092 13.9648 12.511 14.0503 12.3907C14.1358 12.2703 14.1914 12.1314 14.2126 11.9853C14.2337 11.8392 14.2197 11.6902 14.1718 11.5506ZM4.57271 13.4641H4.567C3.99393 13.4631 3.42965 13.3231 2.92258 13.0561C2.87144 13.0291 2.81529 13.0128 2.75761 13.0083C2.69992 13.0037 2.64192 13.0111 2.58719 13.0299L0.88849 13.6121L1.47186 11.9145C1.49063 11.8598 1.49799 11.8018 1.49346 11.7441C1.48894 11.6864 1.47265 11.6303 1.44558 11.5791C1.09926 10.9231 0.968446 10.1746 1.07173 9.44003C1.17502 8.70542 1.50715 8.02204 2.02095 7.48695C2.23117 8.73736 2.83019 9.88969 3.73285 10.7801C4.63551 11.6706 5.79589 12.2539 7.04905 12.4471C6.38975 13.099 5.49988 13.4644 4.57271 13.4641ZM13.353 11.9117C13.3425 11.9231 13.3289 11.9311 13.3138 11.9345C13.2987 11.938 13.2829 11.9368 13.2685 11.9311L10.6973 11.0466C10.6425 11.0278 10.5845 11.0205 10.5269 11.025C10.4692 11.0295 10.413 11.0458 10.3619 11.0729C9.62193 11.4627 8.79845 11.6672 7.9621 11.6688H7.95411C6.60155 11.6636 5.30466 11.1297 4.34049 10.1811C3.37632 9.23248 2.82131 7.94447 2.79402 6.59218C2.78275 5.90041 2.91069 5.21343 3.17023 4.5721C3.42978 3.93076 3.81564 3.34816 4.30486 2.85894C4.79408 2.36972 5.37668 1.98386 6.01801 1.72432C6.65935 1.46477 7.34633 1.33683 8.0381 1.3481C8.91969 1.36336 9.78267 1.60419 10.5448 2.04762C11.3069 2.49106 11.9427 3.12233 12.3916 3.88123C12.8405 4.64013 13.0875 5.50137 13.109 6.38283C13.1306 7.26428 12.926 8.13658 12.5148 8.91653C12.4877 8.96767 12.4715 9.02382 12.4669 9.08151C12.4624 9.13919 12.4698 9.19719 12.4885 9.25193L13.373 11.8231C13.3792 11.838 13.3804 11.8546 13.3766 11.8703C13.3728 11.886 13.3642 11.9001 13.3519 11.9105L13.353 11.9117Z" fill="black"/>
</g>
</g>
<g id="Group 36">
<g id="Group 35">
<path id="Path 19" d="M10.4705 4.26367H5.42755C5.31526 4.26367 5.20756 4.30828 5.12816 4.38768C5.04876 4.46708 5.00415 4.57478 5.00415 4.68707C5.00415 4.79936 5.04876 4.90704 5.12816 4.98644C5.20756 5.06584 5.31526 5.11045 5.42755 5.11045H10.4705C10.5828 5.11045 10.6905 5.06584 10.7699 4.98644C10.8493 4.90704 10.8939 4.79936 10.8939 4.68707C10.8939 4.57478 10.8493 4.46708 10.7699 4.38768C10.6905 4.30828 10.5828 4.26367 10.4705 4.26367Z" fill="black"/>
</g>
</g>
<g id="Group 38">
<g id="Group 37">
<path id="Path 20" d="M10.4705 6.00488H5.42755C5.31526 6.00488 5.20756 6.04949 5.12816 6.12889C5.04876 6.2083 5.00415 6.31598 5.00415 6.42827C5.00415 6.54056 5.04876 6.64825 5.12816 6.72765C5.20756 6.80705 5.31526 6.85166 5.42755 6.85166H10.4705C10.5828 6.85166 10.6905 6.80705 10.7699 6.72765C10.8493 6.64825 10.8939 6.54056 10.8939 6.42827C10.8939 6.31598 10.8493 6.2083 10.7699 6.12889C10.6905 6.04949 10.5828 6.00488 10.4705 6.00488Z" fill="black"/>
</g>
</g>
<g id="Group 40">
<g id="Group 39">
<path id="Path 21" d="M8.52953 7.74512H5.42754C5.31525 7.74512 5.20755 7.78973 5.12815 7.86913C5.04875 7.94853 5.00415 8.05621 5.00415 8.1685C5.00415 8.28079 5.04875 8.3885 5.12815 8.4679C5.20755 8.5473 5.31525 8.59191 5.42754 8.59191H8.52953C8.64182 8.59191 8.74951 8.5473 8.82891 8.4679C8.90831 8.3885 8.95292 8.28079 8.95292 8.1685C8.95292 8.05621 8.90831 7.94853 8.82891 7.86913C8.74951 7.78973 8.64182 7.74512 8.52953 7.74512Z" fill="black"/>
</g>
</g>
</g>
</g>
</g>
</svg>
