<svg width="15" height="17" viewBox="0 0 15 17" fill="none" xmlns="http://www.w3.org/2000/svg">
<g id="Iconly/Light-Outline/Delete">
<g id="Delete">
<path id="Combined-Shape" fill-rule="evenodd" clip-rule="evenodd" d="M13.3047 5.88921C13.384 5.8942 13.4615 5.91485 13.5327 5.94995C13.604 5.98506 13.6676 6.03394 13.7198 6.09376C13.772 6.15358 13.8119 6.22315 13.8371 6.29847C13.8623 6.37379 13.8724 6.45335 13.8666 6.53257C13.8619 6.58689 13.4218 11.9285 13.169 14.1695C13.1343 14.8012 12.8513 15.3935 12.3817 15.8174C11.9121 16.2412 11.2939 16.4622 10.662 16.432C9.57663 16.4498 8.53434 16.4601 7.51358 16.4601C6.41416 16.4601 5.34283 16.448 4.28274 16.4264C3.66256 16.4433 3.06016 16.2182 2.60308 15.7987C2.146 15.3792 1.87012 14.7982 1.83386 14.1789C1.5782 11.9182 1.14086 6.59344 1.13712 6.53632C1.13127 6.45707 1.14121 6.37746 1.16636 6.30209C1.19151 6.22672 1.23138 6.15709 1.28365 6.09724C1.33591 6.0374 1.39954 5.98852 1.47084 5.95345C1.54214 5.91839 1.6197 5.89782 1.699 5.89296C1.85748 5.883 2.01375 5.93414 2.13568 6.03587C2.25761 6.13759 2.33593 6.28216 2.35454 6.43986C2.35454 6.47451 2.53621 8.65088 2.72913 10.8038L2.76846 11.2337C2.86211 12.3041 2.96605 13.3323 3.0494 14.0478C3.04839 14.2107 3.08098 14.372 3.14514 14.5218C3.20931 14.6715 3.30366 14.8064 3.42231 14.918C3.54095 15.0296 3.68135 15.1156 3.83471 15.1705C3.98807 15.2254 4.15111 15.2481 4.31364 15.2371C6.34205 15.2792 8.41166 15.2821 10.6423 15.2418C10.8095 15.2579 10.9782 15.2388 11.1375 15.1858C11.2969 15.1328 11.4434 15.0471 11.5677 14.9341C11.6919 14.8211 11.7912 14.6834 11.8591 14.5298C11.9269 14.3762 11.962 14.2101 11.9618 14.0422C12.2137 11.818 12.6511 6.49417 12.6567 6.43986C12.6737 6.28258 12.7504 6.13781 12.871 6.03537C12.9915 5.93293 13.1468 5.88062 13.3047 5.88921ZM9.21703 0.540064C9.57701 0.538068 9.9277 0.654252 10.2153 0.870786C10.5029 1.08732 10.7115 1.39224 10.809 1.73875L11.0151 2.74265C11.0493 2.90391 11.1374 3.0487 11.2649 3.15321C11.3924 3.25772 11.5516 3.31571 11.7165 3.31765H14.3789C14.4593 3.31447 14.5395 3.32755 14.6147 3.35612C14.6899 3.38468 14.7586 3.42815 14.8166 3.4839C14.8746 3.53965 14.9207 3.60654 14.9522 3.68056C14.9838 3.75458 15 3.8342 15 3.91465C15 3.9951 14.9838 4.07473 14.9522 4.14875C14.9207 4.22277 14.8746 4.28966 14.8166 4.34541C14.7586 4.40116 14.6899 4.44462 14.6147 4.47319C14.5395 4.50176 14.4593 4.51484 14.3789 4.51166H0.621121C0.540732 4.51484 0.460528 4.50176 0.385319 4.47319C0.310109 4.44462 0.241444 4.40116 0.183441 4.34541C0.125438 4.28966 0.0792918 4.22277 0.04777 4.14875C0.0162481 4.07473 0 3.9951 0 3.91465C0 3.8342 0.0162481 3.75458 0.04777 3.68056C0.0792918 3.60654 0.125438 3.53965 0.183441 3.4839C0.241444 3.42815 0.310109 3.38468 0.385319 3.35612C0.460528 3.32755 0.540732 3.31447 0.621121 3.31765H3.28258L3.36499 3.31203C3.51473 3.29357 3.65499 3.2289 3.76627 3.12702C3.87754 3.02514 3.95431 2.89112 3.98588 2.74359L4.18347 1.77528C4.2757 1.42152 4.48266 1.10836 4.77193 0.884833C5.06121 0.661308 5.41646 0.540054 5.78204 0.540064H9.21703ZM9.21703 1.73407H5.78204C5.68811 1.73322 5.59652 1.76329 5.52138 1.81965C5.44624 1.876 5.39172 1.95551 5.36624 2.04592L5.17895 2.97771C5.15515 3.09406 5.12035 3.20789 5.075 3.31765H9.92594C9.88059 3.20789 9.84578 3.09406 9.82199 2.97771L9.62439 2.00939C9.59338 1.92696 9.53752 1.85619 9.46455 1.80687C9.39157 1.75755 9.30508 1.73211 9.21703 1.73407Z" fill="url(#paint0_linear_313_7055)"/>
</g>
</g>
<defs>
<linearGradient id="paint0_linear_313_7055" x1="7.5" y1="0.540039" x2="7.5" y2="16.4601" gradientUnits="userSpaceOnUse">
<stop stop-color="#132E46"/>
<stop offset="1" stop-color="#0D2236"/>
</linearGradient>
</defs>
</svg>
