<svg width="48" height="48" viewBox="0 0 48 48" fill="none" xmlns="http://www.w3.org/2000/svg">
<g id="Group 3015">
<g id="Ellipse 229">
<path id="Vector" d="M24 0.25C10.8832 0.25 0.25 10.8832 0.25 24C0.25 37.1168 10.8832 47.75 24 47.75C37.1168 47.75 47.75 37.1168 47.75 24C47.75 10.8832 37.1168 0.25 24 0.25Z" stroke="white" stroke-opacity="0.5" stroke-width="0.5"/>
</g>
<g id="Icon feather-download">
<path id="Path 798" d="M35.233 27.8223V32.7633C35.233 33.4184 34.9728 34.0466 34.5096 34.5098C34.0463 34.973 33.4181 35.2333 32.763 35.2333H15.47C14.8149 35.2333 14.1867 34.973 13.7234 34.5098C13.2602 34.0466 13 33.4184 13 32.7633V27.8223" stroke="white" stroke-width="2" stroke-linecap="round" stroke-linejoin="round"/>
<path id="Path 799" d="M17.9414 21.6465L24.1174 27.8225L30.2934 21.6465" stroke="white" stroke-width="2" stroke-linecap="round" stroke-linejoin="round"/>
<path id="Path 800" d="M24.1152 27.822V13" stroke="white" stroke-width="2" stroke-linecap="round" stroke-linejoin="round"/>
</g>
</g>
</svg>
