<svg width="22" height="22" viewBox="0 0 22 22" fill="none" xmlns="http://www.w3.org/2000/svg">
<g id="humbleicons:duplicate">
<path id="Vector" d="M5.50033 14.6665H4.58366C4.34054 14.6665 4.10739 14.5699 3.93548 14.398C3.76357 14.2261 3.66699 13.993 3.66699 13.7498V4.58317C3.66699 4.34006 3.76357 4.1069 3.93548 3.93499C4.10739 3.76308 4.34054 3.6665 4.58366 3.6665H13.7503C13.9934 3.6665 14.2266 3.76308 14.3985 3.93499C14.5704 4.1069 14.667 4.34006 14.667 4.58317V5.49984M8.25033 18.3332H17.417C17.6601 18.3332 17.8933 18.2366 18.0652 18.0647C18.2371 17.8928 18.3337 17.6596 18.3337 17.4165V8.24984C18.3337 8.00672 18.2371 7.77356 18.0652 7.60166C17.8933 7.42975 17.6601 7.33317 17.417 7.33317H8.25033C8.00721 7.33317 7.77405 7.42975 7.60214 7.60166C7.43024 7.77356 7.33366 8.00672 7.33366 8.24984V17.4165C7.33366 17.6596 7.43024 17.8928 7.60214 18.0647C7.77405 18.2366 8.00721 18.3332 8.25033 18.3332Z" stroke="black" stroke-width="1.5" stroke-linejoin="round"/>
</g>
</svg>
