<svg width="18" height="18" viewBox="0 0 18 18" fill="none" xmlns="http://www.w3.org/2000/svg">
<g id="carbon:edit">
<path id="Vector" d="M1.125 14.525H1.025V14.625V15.75V15.85H1.125H16.875H16.975V15.75V14.625V14.525H16.875H1.125ZM2.17929 9.82929L2.15 9.85858V9.9V13.5V13.6H2.25H5.85H5.89142L5.92071 13.5707L14.3582 5.13321C14.8473 4.64416 14.8473 3.90584 14.3582 3.41679L12.3332 1.39179C11.8442 0.902737 11.1058 0.902737 10.6168 1.39179L2.17929 9.82929ZM9.92892 3.9375L11.475 2.39142L13.3586 4.275L11.8125 5.82108L9.92892 3.9375ZM3.475 12.275V10.3914L9 4.86642L10.8836 6.75L5.35858 12.275H3.475Z" fill="black" stroke="black" stroke-width="0.2"/>
</g>
</svg>
