<svg width="19" height="19" viewBox="0 0 19 19" fill="none" xmlns="http://www.w3.org/2000/svg">
<g id="carbon:edit">
<path id="Vector" d="M1.1875 15.3375H1.0875V15.4375V16.625V16.725H1.1875H17.8125H17.9125V16.625V15.4375V15.3375H17.8125H1.1875ZM2.30429 10.3793L2.275 10.4086V10.45V14.25V14.35H2.375H6.175H6.21642L6.24571 14.3207L15.152 5.41446C15.666 4.90041 15.666 4.12459 15.152 3.61054L13.0145 1.47304C12.5004 0.958987 11.7246 0.958987 11.2105 1.47304L2.30429 10.3793ZM10.4727 4.15625L12.1125 2.51642L14.1086 4.5125L12.4688 6.15233L10.4727 4.15625ZM3.6625 12.9625V10.9664L9.5 5.12892L11.4961 7.125L5.65858 12.9625H3.6625Z" fill="white" stroke="white" stroke-width="0.2"/>
</g>
</svg>
