<svg width="23" height="22" viewBox="0 0 23 22" fill="none" xmlns="http://www.w3.org/2000/svg">
<g id="Icon feather-edit">
<path id="Path 787" d="M10.4685 3.03027H3.76849C3.26087 3.03027 2.77403 3.23193 2.41509 3.59087C2.05615 3.94982 1.85449 4.43665 1.85449 4.94427V18.3443C1.85449 18.8519 2.05615 19.3387 2.41509 19.6977C2.77403 20.0566 3.26087 20.2583 3.76849 20.2583H17.1685C17.6761 20.2583 18.1629 20.0566 18.5219 19.6977C18.8808 19.3387 19.0825 18.8519 19.0825 18.3443V11.6443" stroke="white" stroke-width="2" stroke-linecap="round" stroke-linejoin="round"/>
<path id="Path 788" d="M17.6457 1.59509C18.0264 1.21437 18.5428 1.00049 19.0812 1.00049C19.6196 1.00049 20.136 1.21437 20.5167 1.59509C20.8974 1.97581 21.1113 2.49217 21.1113 3.03059C21.1113 3.56901 20.8974 4.08537 20.5167 4.46609L11.4247 13.5581L7.59668 14.5151L8.55368 10.6871L17.6457 1.59509Z" stroke="white" stroke-width="2" stroke-linecap="round" stroke-linejoin="round"/>
</g>
</svg>
