<svg width="15" height="15" viewBox="0 0 15 15" fill="none" xmlns="http://www.w3.org/2000/svg">
<g id="Group 3016">
<g id="Icon feather-edit">
<path id="Path 881" d="M6.85041 2.29102H2.30009C1.95529 2.29102 1.6246 2.42799 1.38079 2.6718C1.13697 2.91562 1 3.2463 1 3.59111V12.6983C1 13.0431 1.13697 13.3737 1.38079 13.6176C1.6246 13.8614 1.95529 13.9983 2.30009 13.9983H11.4072C11.752 13.9983 12.0827 13.8614 12.3265 13.6176C12.5704 13.3737 12.7073 13.0431 12.7073 12.6983V8.14143" stroke="#0B2942" stroke-linecap="round" stroke-linejoin="round"/>
<path id="Path 882" d="M11.7949 1.37692C12.0376 1.13588 12.366 1.00087 12.7081 1.00147C13.0502 1.00207 13.3781 1.13822 13.6199 1.38011C13.8618 1.622 13.998 1.9499 13.9986 2.29198C13.9992 2.63406 13.8642 2.96244 13.6231 3.20517L7.83367 8.99383L5.396 9.60325L6.00541 7.16558L11.7949 1.37692Z" stroke="#0B2942" stroke-linecap="round" stroke-linejoin="round"/>
</g>
</g>
</svg>
