<svg width="30" height="30" viewBox="0 0 30 30" fill="none" xmlns="http://www.w3.org/2000/svg">
<g id="uit:favorite">
<path id="Vector" d="M25.5722 11.8148C25.5947 11.663 25.587 11.5083 25.5496 11.3595C25.5122 11.2107 25.4458 11.0707 25.3542 10.9476C25.2626 10.8245 25.1477 10.7207 25.0159 10.6421C24.8842 10.5635 24.7382 10.5116 24.5864 10.4895L17.9935 9.52581L15.0465 3.52097C14.9401 3.33742 14.7874 3.18507 14.6035 3.07921C14.4197 2.97334 14.2112 2.91767 13.9991 2.91779C13.787 2.9179 13.5786 2.9738 13.3948 3.07988C13.2111 3.18595 13.0585 3.33847 12.9524 3.52214L10.0065 9.52581L3.41369 10.4895C3.19849 10.5207 2.99631 10.6115 2.82997 10.7516C2.66363 10.8916 2.53974 11.0754 2.47228 11.2821C2.40483 11.4889 2.39649 11.7103 2.44822 11.9215C2.49995 12.1328 2.60968 12.3253 2.76502 12.4775L7.54019 17.1593L6.41319 23.7673C6.37756 23.9818 6.40245 24.2019 6.48506 24.403C6.56767 24.6042 6.70473 24.7782 6.88083 24.9057C7.05693 25.0332 7.2651 25.1091 7.48195 25.1248C7.69879 25.1405 7.91572 25.0954 8.10836 24.9946L14 21.8796L19.8905 24.9935C20.0829 25.0953 20.3 25.1413 20.5172 25.1263C20.7343 25.1112 20.943 25.0357 21.1194 24.9082C21.2959 24.7808 21.4332 24.6065 21.5158 24.4051C21.5984 24.2037 21.623 23.9831 21.5869 23.7685L20.4599 17.1593L25.2362 12.4763C25.4172 12.2982 25.5352 12.066 25.5722 11.8148ZM19.425 16.5398C19.3579 16.6058 19.3077 16.6871 19.2787 16.7766C19.2496 16.8662 19.2426 16.9615 19.2582 17.0543L20.4365 23.9621L14.2719 20.7036C14.1879 20.66 14.0947 20.6372 14 20.6372C13.9054 20.6372 13.8121 20.66 13.7282 20.7036L7.56352 23.9633L8.74186 17.0543C8.75745 16.9615 8.75043 16.8662 8.72139 16.7766C8.69235 16.6871 8.64214 16.6058 8.57502 16.5398L3.58169 11.6433L10.479 10.6353C10.5728 10.6213 10.6618 10.5849 10.7384 10.529C10.815 10.4731 10.8769 10.3995 10.9189 10.3145L14 4.03664L17.08 10.3156C17.1221 10.4008 17.1842 10.4745 17.261 10.5304C17.3378 10.5863 17.427 10.6227 17.521 10.6365L24.4195 11.6433L19.425 16.5398Z" fill="#F7F7F7"/>
</g>
</svg>
