<svg width="29" height="27" viewBox="0 0 29 27" fill="none" xmlns="http://www.w3.org/2000/svg">
<path id="Icon ionic-ios-star-outline" d="M27.3794 9.32886H18.1854L15.3914 0.990862C15.32 0.796355 15.1906 0.628455 15.0207 0.509846C14.8508 0.391237 14.6486 0.327637 14.4414 0.327637C14.2342 0.327637 14.032 0.391237 13.8621 0.509846C13.6922 0.628455 13.5628 0.796355 13.4914 0.990862L10.6974 9.32886H1.44141C1.1762 9.32886 0.921842 9.43422 0.734305 9.62176C0.546769 9.80929 0.441412 10.0636 0.441412 10.3289C0.441185 10.3857 0.447561 10.4425 0.460412 10.4979C0.473776 10.6392 0.51828 10.7758 0.590727 10.8979C0.663174 11.0199 0.761765 11.1244 0.879412 11.2039L8.43541 16.5289L5.53541 24.9599C5.4665 25.1597 5.46268 25.3762 5.52448 25.5783C5.58629 25.7804 5.71054 25.9578 5.87941 26.0849C6.03535 26.225 6.23258 26.3106 6.44141 26.3289C6.66649 26.3129 6.88278 26.235 7.06641 26.1039L14.4414 20.8479L21.8164 26.1039C21.9987 26.2376 22.2157 26.3158 22.4414 26.3289C22.6494 26.3144 22.8459 26.2281 22.9974 26.0849C23.1674 25.9587 23.2925 25.7814 23.3544 25.5789C23.4163 25.3765 23.4118 25.1595 23.3414 24.9599L20.4414 16.5289L27.9354 11.1539L28.1164 10.9979C28.3029 10.8221 28.4185 10.5841 28.4414 10.3289C28.4265 10.0577 28.308 9.80272 28.1103 9.61658C27.9126 9.43044 27.6509 9.32743 27.3794 9.32886ZM19.4294 15.1099C19.1242 15.3292 18.8975 15.6408 18.7826 15.9987C18.6678 16.3566 18.6709 16.7419 18.7914 17.0979L20.6724 22.5789C20.6895 22.6289 20.6903 22.6831 20.6748 22.7336C20.6592 22.7842 20.6281 22.8285 20.5859 22.8604C20.5436 22.8922 20.4924 22.9099 20.4395 22.9108C20.3867 22.9118 20.3348 22.8961 20.2914 22.8659L15.4534 19.4159C15.1561 19.2036 14.7997 19.0899 14.4344 19.0909C14.0708 19.089 13.7161 19.2028 13.4214 19.4159L8.58441 22.8599C8.54113 22.8908 8.4891 22.9071 8.4359 22.9065C8.38269 22.9058 8.33109 22.8882 8.28859 22.8562C8.24609 22.8242 8.21491 22.7794 8.19959 22.7285C8.18427 22.6775 8.18561 22.623 8.20341 22.5729L10.0844 17.0919C10.2062 16.7336 10.2094 16.3455 10.0934 15.9853C9.97737 15.6251 9.74841 15.3118 9.44041 15.0919L4.37841 11.5229C4.33495 11.4922 4.30237 11.4484 4.28538 11.398C4.26839 11.3476 4.26787 11.293 4.28389 11.2423C4.29992 11.1915 4.33166 11.1472 4.37453 11.1157C4.41741 11.0841 4.46919 11.067 4.52241 11.0669H10.6914C11.0577 11.0665 11.4147 10.951 11.7118 10.7367C12.009 10.5225 12.2313 10.2203 12.3474 9.87286L14.1974 4.35986C14.2148 4.31079 14.247 4.26832 14.2895 4.23828C14.3321 4.20824 14.3828 4.19211 14.4349 4.19211C14.487 4.19211 14.5378 4.20824 14.5803 4.23828C14.6228 4.26832 14.655 4.31079 14.6724 4.35986L16.5224 9.87286C16.6385 10.2203 16.8608 10.5225 17.158 10.7367C17.4551 10.951 17.8121 11.0665 18.1784 11.0669H24.2594C24.3123 11.0662 24.3641 11.0824 24.407 11.1134C24.45 11.1443 24.4819 11.1882 24.498 11.2386C24.5141 11.289 24.5136 11.3432 24.4966 11.3933C24.4796 11.4434 24.4469 11.4867 24.4034 11.5169L19.4294 15.1099Z" fill="black"/>
</svg>
