<svg width="20" height="20" viewBox="0 0 20 20" fill="none" xmlns="http://www.w3.org/2000/svg">
<g id="ri:ai-generate">
<path id="Vector" d="M12.5003 4.37484C13.2186 4.37484 13.9075 4.0895 14.4154 3.58158C14.9233 3.07367 15.2087 2.3848 15.2087 1.6665H16.4587C16.4587 2.3848 16.744 3.07367 17.2519 3.58158C17.7598 4.0895 18.4487 4.37484 19.167 4.37484V5.62484C18.4487 5.62484 17.7598 5.91018 17.2519 6.41809C16.744 6.926 16.4587 7.61488 16.4587 8.33317H15.2087C15.2087 7.61488 14.9233 6.926 14.4154 6.41809C13.9075 5.91018 13.2186 5.62484 12.5003 5.62484V4.37484ZM3.33366 5.83317C3.33366 5.39114 3.50925 4.96722 3.82181 4.65466C4.13437 4.3421 4.5583 4.1665 5.00033 4.1665H10.8337V2.49984H5.00033C4.11627 2.49984 3.26842 2.85103 2.6433 3.47615C2.01818 4.10127 1.66699 4.94912 1.66699 5.83317V14.1665C1.66699 15.0506 2.01818 15.8984 2.6433 16.5235C3.26842 17.1486 4.11627 17.4998 5.00033 17.4998H15.0003C15.8844 17.4998 16.7322 17.1486 17.3573 16.5235C17.9825 15.8984 18.3337 15.0506 18.3337 14.1665V9.99984H16.667V14.1665C16.667 14.6085 16.4914 15.0325 16.1788 15.345C15.8663 15.6576 15.4424 15.8332 15.0003 15.8332H5.00033C4.5583 15.8332 4.13437 15.6576 3.82181 15.345C3.50925 15.0325 3.33366 14.6085 3.33366 14.1665V5.83317Z" fill="white"/>
</g>
</svg>
