<svg width="26" height="26" viewBox="0 0 26 26" fill="none" xmlns="http://www.w3.org/2000/svg">
<g id="Group 2930">
<path id="Rectangle 684" d="M9.55555 0.000244141H2C0.895431 0.000244141 0 0.895675 0 2.00024V10.0002C0 11.1048 0.895433 12.0002 2 12.0002H9.55556C10.6601 12.0002 11.5556 11.1048 11.5556 10.0002V2.00024C11.5556 0.895675 10.6601 0.000244141 9.55555 0.000244141Z" fill="black"/>
<path id="Rectangle 685" d="M9.55555 14.0002H2C0.895431 14.0002 0 14.8957 0 16.0002V24.0002C0 25.1048 0.895433 26.0002 2 26.0002H9.55556C10.6601 26.0002 11.5556 25.1048 11.5556 24.0002V16.0002C11.5556 14.8957 10.6601 14.0002 9.55555 14.0002Z" fill="black"/>
<path id="Rectangle 686" d="M24 0.000244141H16.4445C15.3399 0.000244141 14.4445 0.895675 14.4445 2.00024V10.0002C14.4445 11.1048 15.3399 12.0002 16.4445 12.0002H24C25.1046 12.0002 26 11.1048 26 10.0002V2.00024C26 0.895675 25.1046 0.000244141 24 0.000244141Z" fill="black"/>
<path id="Rectangle 687" d="M24 14.0002H16.4445C15.3399 14.0002 14.4445 14.8957 14.4445 16.0002V24.0002C14.4445 25.1048 15.3399 26.0002 16.4445 26.0002H24C25.1046 26.0002 26 25.1048 26 24.0002V16.0002C26 14.8957 25.1046 14.0002 24 14.0002Z" fill="black"/>
</g>
</svg>
