<svg width="26" height="26" viewBox="0 0 26 26" fill="none" xmlns="http://www.w3.org/2000/svg">
<g id="Group 2929">
<path id="Rectangle 688" d="M25 0.000244141H1C0.447715 0.000244141 0 0.44796 0 1.00024V5.00024C0 5.55253 0.447716 6.00024 1 6.00024H25C25.5523 6.00024 26 5.55253 26 5.00024V1.00024C26 0.447959 25.5523 0.000244141 25 0.000244141Z" fill="#9A9A9A"/>
<path id="Rectangle 689" d="M25 10.0002H1C0.447715 10.0002 0 10.448 0 11.0002V15.0002C0 15.5525 0.447716 16.0002 1 16.0002H25C25.5523 16.0002 26 15.5525 26 15.0002V11.0002C26 10.448 25.5523 10.0002 25 10.0002Z" fill="#9A9A9A"/>
<path id="Rectangle 690" d="M25 20.0002H1C0.447715 20.0002 0 20.448 0 21.0002V25.0002C0 25.5525 0.447716 26.0002 1 26.0002H25C25.5523 26.0002 26 25.5525 26 25.0002V21.0002C26 20.448 25.5523 20.0002 25 20.0002Z" fill="#9A9A9A"/>
</g>
</svg>
