<svg width="48" height="48" viewBox="0 0 48 48" fill="none" xmlns="http://www.w3.org/2000/svg">
<g id="Group 3019">
<g id="Ellipse 229">
<path id="Vector" d="M24 0.25C10.8832 0.25 0.25 10.8832 0.25 24C0.25 37.1168 10.8832 47.75 24 47.75C37.1168 47.75 47.75 37.1168 47.75 24C47.75 10.8832 37.1168 0.25 24 0.25Z" stroke="white" stroke-opacity="0.5" stroke-width="0.5"/>
</g>
<g id="Group 3018">
<g id="Group 85">
<g id="conversation">
<g id="Group 34">
<g id="Group 33">
<path id="Path 18" d="M36.3538 31.0903L34.9078 26.8833C35.6824 25.293 36.0436 23.5331 35.9582 21.7663C35.8727 19.9994 35.3433 18.2826 34.4189 16.7745C33.4945 15.2663 32.2049 14.0155 30.6693 13.1375C29.1336 12.2596 27.4014 11.7828 25.6328 11.7513C24.2498 11.7294 22.8761 11.9805 21.5904 12.4904C20.3047 13.0003 19.1322 13.7588 18.1402 14.7226C17.1481 15.6864 16.356 16.8365 15.8093 18.107C15.2625 19.3774 14.9718 20.7433 14.9538 22.1263C13.5395 23.1859 12.535 24.7019 12.1105 26.4175C11.686 28.133 11.8677 29.9425 12.6248 31.5393L11.6248 34.4393C11.5543 34.645 11.5338 34.8645 11.5649 35.0796C11.5961 35.2948 11.6781 35.4994 11.804 35.6766C11.93 35.8538 12.0964 35.9984 12.2894 36.0985C12.4823 36.1987 12.6964 36.2514 12.9138 36.2523C13.0662 36.2523 13.2176 36.2269 13.3618 36.1773L16.2618 35.1773C17.2857 35.6621 18.4039 35.9148 19.5368 35.9173H19.5538C20.7596 35.9177 21.9485 35.6329 23.0234 35.0864C24.0982 34.5398 25.0287 33.7469 25.7388 32.7723C27.2461 32.7326 28.7274 32.3701 30.0828 31.7093L34.2898 33.1553C34.4612 33.2146 34.6414 33.245 34.8228 33.2453C35.0811 33.2441 35.3354 33.1813 35.5647 33.0622C35.794 32.9432 35.9916 32.7712 36.1412 32.5606C36.2908 32.35 36.3881 32.1068 36.4251 31.8512C36.4621 31.5955 36.4376 31.3347 36.3538 31.0903ZM19.5538 34.4393H19.5438C18.5408 34.4376 17.5532 34.1926 16.6658 33.7253C16.5763 33.678 16.478 33.6494 16.3771 33.6415C16.2761 33.6336 16.1746 33.6465 16.0788 33.6793L13.1058 34.6983L14.1268 31.7273C14.1596 31.6315 14.1725 31.53 14.1646 31.4291C14.1567 31.3281 14.1282 31.2298 14.0808 31.1403C13.4747 29.9922 13.2457 28.6822 13.4265 27.3965C13.6073 26.1109 14.1886 24.9148 15.0878 23.9783C15.4557 26.1667 16.5041 28.1835 18.0839 29.742C19.6637 31.3004 21.6946 32.3212 23.8878 32.6593C22.7339 33.8003 21.1765 34.4399 19.5538 34.4393ZM34.9208 31.7223C34.9025 31.7423 34.8785 31.7562 34.8521 31.7623C34.8256 31.7684 34.798 31.7663 34.7728 31.7563L30.2728 30.2083C30.177 30.1755 30.0755 30.1626 29.9745 30.1705C29.8736 30.1784 29.7753 30.207 29.6858 30.2543C28.3907 30.9366 26.9495 31.2945 25.4858 31.2973H25.4718C23.1046 31.2881 20.8348 30.3537 19.1474 28.6935C17.4599 27.0333 16.4885 24.7791 16.4408 22.4123C16.4211 21.2016 16.645 19.9993 17.0992 18.8768C17.5535 17.7544 18.2288 16.7348 19.085 15.8785C19.9412 15.0223 20.9609 14.347 22.0833 13.8928C23.2057 13.4385 24.4081 13.2146 25.6188 13.2343C27.1617 13.261 28.6721 13.6825 30.0059 14.4586C31.3397 15.2347 32.4525 16.3395 33.2381 17.6677C34.0237 18.9959 34.456 20.5032 34.4938 22.0459C34.5315 23.5886 34.1735 25.1153 33.4538 26.4803C33.4064 26.5698 33.3779 26.6681 33.37 26.7691C33.3621 26.87 33.3749 26.9715 33.4078 27.0673L34.9558 31.5673C34.9665 31.5935 34.9688 31.6223 34.9621 31.6498C34.9555 31.6773 34.9403 31.702 34.9188 31.7203L34.9208 31.7223Z" fill="white"/>
</g>
</g>
<g id="Group 36">
<g id="Group 35">
<path id="Path 19" d="M29.8756 18.3369H21.0496C20.8531 18.3369 20.6646 18.415 20.5256 18.554C20.3867 18.6929 20.3086 18.8814 20.3086 19.0779C20.3086 19.2745 20.3867 19.4629 20.5256 19.6019C20.6646 19.7408 20.8531 19.8189 21.0496 19.8189H29.8756C30.0721 19.8189 30.2606 19.7408 30.3996 19.6019C30.5385 19.4629 30.6166 19.2745 30.6166 19.0779C30.6166 18.8814 30.5385 18.6929 30.3996 18.554C30.2606 18.415 30.0721 18.3369 29.8756 18.3369Z" fill="white"/>
</g>
</g>
<g id="Group 38">
<g id="Group 37">
<path id="Path 20" d="M29.8756 21.3848H21.0496C20.8531 21.3848 20.6646 21.4628 20.5256 21.6018C20.3867 21.7408 20.3086 21.9292 20.3086 22.1258C20.3086 22.3223 20.3867 22.5108 20.5256 22.6497C20.6646 22.7887 20.8531 22.8668 21.0496 22.8668H29.8756C30.0721 22.8668 30.2606 22.7887 30.3996 22.6497C30.5385 22.5108 30.6166 22.3223 30.6166 22.1258C30.6166 21.9292 30.5385 21.7408 30.3996 21.6018C30.2606 21.4628 30.0721 21.3848 29.8756 21.3848Z" fill="white"/>
</g>
</g>
<g id="Group 40">
<g id="Group 39">
<path id="Path 21" d="M26.4786 24.4307H21.0496C20.8531 24.4307 20.6646 24.5087 20.5256 24.6477C20.3867 24.7867 20.3086 24.9751 20.3086 25.1717C20.3086 25.3682 20.3867 25.5567 20.5256 25.6956C20.6646 25.8346 20.8531 25.9127 21.0496 25.9127H26.4786C26.6751 25.9127 26.8636 25.8346 27.0026 25.6956C27.1415 25.5567 27.2196 25.3682 27.2196 25.1717C27.2196 24.9751 27.1415 24.7867 27.0026 24.6477C26.8636 24.5087 26.6751 24.4307 26.4786 24.4307Z" fill="white"/>
</g>
</g>
</g>
</g>
</g>
</g>
</svg>
