<svg width="38" height="38" viewBox="0 0 38 38" fill="none" xmlns="http://www.w3.org/2000/svg">
<g id="Group 3193">
<g id="Ellipse 228">
<path id="Vector" d="M19 37C28.9411 37 37 28.9411 37 19C37 9.05887 28.9411 1 19 1C9.05887 1 1 9.05887 1 19C1 28.9411 9.05887 37 19 37Z" fill="url(#paint0_linear_2277_27443)"/>
<path id="Vector_2" d="M19.0002 36.8125C28.8378 36.8125 36.8127 28.8376 36.8127 19C36.8127 9.16243 28.8378 1.1875 19.0002 1.1875C9.16267 1.1875 1.18774 9.16243 1.18774 19C1.18774 28.8376 9.16267 36.8125 19.0002 36.8125Z" stroke="#4B4D52" stroke-opacity="0.5" stroke-width="0.642857"/>
</g>
<path id="Icon awesome-user-alt" d="M19.2806 20.0381C20.0271 20.0381 20.7569 19.8168 21.3777 19.402C21.9985 18.9872 22.4823 18.3977 22.768 17.7079C23.0537 17.0182 23.1284 16.2592 22.9828 15.527C22.8371 14.7948 22.4776 14.1222 21.9497 13.5942C21.4218 13.0663 20.7492 12.7068 20.017 12.5612C19.2847 12.4155 18.5258 12.4903 17.836 12.776C17.1463 13.0617 16.5567 13.5455 16.142 14.1663C15.7272 14.787 15.5058 15.5168 15.5058 16.2634C15.506 17.2645 15.9038 18.2245 16.6116 18.9323C17.3195 19.6402 18.2795 20.038 19.2806 20.0381ZM22.6361 20.8766H21.1953C20.5957 21.1534 19.9432 21.2968 19.2828 21.2968C18.6224 21.2968 17.9699 21.1534 17.3703 20.8766H15.9258C15.4851 20.8766 15.0488 20.9633 14.6416 21.1319C14.2344 21.3005 13.8645 21.5476 13.5529 21.8592C13.2413 22.1708 12.9941 22.5408 12.8255 22.9479C12.6569 23.3551 12.5702 23.7915 12.5703 24.2321V24.6514C12.5703 24.9852 12.7029 25.3053 12.9389 25.5413C13.1749 25.7773 13.495 25.9099 13.8288 25.9099H24.7331C25.0668 25.9099 25.3869 25.7773 25.623 25.5413C25.859 25.3053 25.9916 24.9852 25.9916 24.6514V24.2321C25.9917 23.7915 25.9049 23.3551 25.7363 22.9479C25.5677 22.5408 25.3206 22.1708 25.009 21.8592C24.6974 21.5476 24.3274 21.3005 23.9203 21.1319C23.5131 20.9633 23.0767 20.8766 22.6361 20.8766Z" fill="url(#paint1_linear_2277_27443)"/>
</g>
<defs>
<linearGradient id="paint0_linear_2277_27443" x1="19" y1="1" x2="19" y2="37" gradientUnits="userSpaceOnUse">
<stop stop-color="#672024"/>
<stop offset="1" stop-color="#410F12"/>
</linearGradient>
<linearGradient id="paint1_linear_2277_27443" x1="19.2809" y1="12.4886" x2="19.2809" y2="25.9099" gradientUnits="userSpaceOnUse">
<stop stop-color="#F5F1EE"/>
<stop offset="1" stop-color="#E2DCD6"/>
</linearGradient>
</defs>
</svg>
