<svg width="12" height="15" viewBox="0 0 12 15" fill="none" xmlns="http://www.w3.org/2000/svg">
<g id="Group 3020">
<path id="Vector" d="M9.66671 1.69875V1.79875H9.76671H11.3336C11.4088 1.79875 11.4831 1.81278 11.5523 1.83992C11.6215 1.86706 11.6839 1.9067 11.7363 1.95633C11.7887 2.00595 11.8299 2.06455 11.8579 2.12862C11.8858 2.19268 11.9001 2.26113 11.9 2.33009V2.33021V13.8693C11.9 14.0082 11.8417 14.1426 11.7361 14.2426C11.6302 14.3428 11.4856 14.4 11.3336 14.4H0.666368C0.514438 14.4 0.369763 14.3428 0.263917 14.2426C0.158258 14.1426 0.1 14.0082 0.1 13.8693L0.100001 2.33021L0.1 2.33009C0.0999161 2.26113 0.114186 2.19268 0.142151 2.12862C0.170124 2.06455 0.211326 2.00595 0.263686 1.95633C0.316058 1.9067 0.378546 1.86706 0.447709 1.83992C0.516878 1.81278 0.591196 1.79875 0.666367 1.79875H2.23406H2.33406V1.69875V1.13073C2.33406 0.9918 2.39232 0.857371 2.49798 0.757362C2.60383 0.657177 2.7485 0.6 2.90043 0.6H9.10034C9.17546 0.6 9.24972 0.61401 9.31885 0.641112C9.38797 0.668211 9.45043 0.707799 9.50279 0.757362C9.55514 0.806915 9.59636 0.865443 9.62437 0.92945C9.65238 0.993443 9.66671 1.06182 9.66671 1.13073V1.69875ZM3.5668 1.66219H3.4668V1.76219V2.89823V2.99823H3.5668H8.43397H8.53397V2.89823V1.76219V1.66219H8.43397H3.5668ZM10.6673 13.3385H10.7673L10.7673 13.2385L10.7665 2.96093L10.7665 2.86094H10.6665H9.76671H9.66671V2.96094V3.52896C9.66671 3.66789 9.60845 3.80232 9.50279 3.90232C9.39695 4.00251 9.25227 4.05969 9.10034 4.05969H2.90043C2.7485 4.05969 2.60383 4.00251 2.49798 3.90232C2.39232 3.80232 2.33406 3.66789 2.33406 3.52896V2.96094V2.86094H2.23406H1.3335H1.2335V2.96094V13.2385V13.3385H1.3335H10.6673ZM12 13.8693V2.33021L0.666368 1.69875C0.578794 1.69875 0.492079 1.71509 0.411182 1.74683C0.330284 1.77857 0.25679 1.8251 0.194902 1.88374C0.133014 1.94239 0.0839461 2.01201 0.0505033 2.08861C0.0170606 2.16522 -0.000100796 2.24732 0 2.33021V13.8693C0 14.0365 0.0702068 14.197 0.195175 14.3153C0.320143 14.4335 0.489636 14.5 0.666368 14.5H11.3336C11.5104 14.5 11.6799 14.4335 11.8048 14.3153C11.9298 14.197 12 14.0365 12 13.8693ZM9.66748 7.88281C9.66748 8.02174 9.60922 8.15617 9.50356 8.25618C9.39772 8.35636 9.25304 8.41354 9.10111 8.41354C8.47058 8.41354 8.10229 8.11944 7.82496 7.81509C7.7564 7.73986 7.69382 7.66443 7.63343 7.59164L7.62947 7.58686C7.56856 7.51345 7.50895 7.44175 7.45005 7.37971C7.33557 7.25914 7.20261 7.15135 7.03422 7.15135C6.86588 7.15135 6.73273 7.25908 6.61802 7.37964C6.559 7.44167 6.49926 7.51337 6.43822 7.58679L6.43385 7.59204C6.37345 7.66469 6.31088 7.73996 6.24237 7.81504C5.96457 8.11949 5.59627 8.41354 4.96732 8.41354C4.33836 8.41354 3.97005 8.11965 3.69226 7.81539C3.62376 7.74035 3.56119 7.66514 3.50079 7.59253L3.49641 7.58726C3.43537 7.51389 3.37563 7.44223 3.31661 7.38023C3.20189 7.25974 3.06875 7.15208 2.90043 7.15208C2.7484 7.15208 2.60363 7.09487 2.49771 6.99461C2.39198 6.89454 2.33368 6.76002 2.33368 6.62099C2.33368 6.48196 2.39198 6.34744 2.49771 6.24736C2.60363 6.14711 2.7484 6.0899 2.90043 6.0899C3.52976 6.0899 3.89786 6.38395 4.17534 6.68836C4.24383 6.76349 4.30636 6.8388 4.36672 6.9115L4.37096 6.9166C4.43193 6.99002 4.49159 7.06173 4.55054 7.12376C4.66513 7.24432 4.79818 7.35208 4.96655 7.35208C5.13484 7.35208 5.26817 7.24441 5.38311 7.12388C5.44225 7.06185 5.50212 6.99016 5.5633 6.91673L5.56811 6.91096C5.6285 6.83846 5.69106 6.76336 5.75952 6.68844C6.03778 6.38389 6.40609 6.0899 7.03345 6.0899C7.66081 6.0899 8.02912 6.38389 8.30738 6.68844C8.37582 6.76335 8.43838 6.83845 8.49877 6.91094L8.50359 6.91673C8.56477 6.99016 8.62464 7.06185 8.68378 7.12388C8.79872 7.24441 8.93205 7.35208 9.10034 7.35208C9.17546 7.35208 9.24972 7.36609 9.31885 7.39319C9.38797 7.42029 9.45043 7.45988 9.50279 7.50945C9.55514 7.559 9.59636 7.61753 9.62437 7.68153C9.65263 7.7461 9.66748 7.81451 9.66748 7.88281ZM4.01669 10.9386C3.86466 10.9386 3.71989 10.8814 3.61397 10.7812C3.50824 10.6811 3.44994 10.5466 3.44994 10.4076C3.44994 10.2685 3.50824 10.134 3.61397 10.0339C3.71989 9.93367 3.86466 9.87646 4.01669 9.87646H7.98331C8.13534 9.87646 8.28011 9.93367 8.38603 10.0339C8.49176 10.134 8.55006 10.2685 8.55006 10.4076C8.55006 10.5466 8.49176 10.6811 8.38603 10.7812C8.28011 10.8814 8.13534 10.9386 7.98331 10.9386H4.01669Z" fill="black" stroke="#F4F2F0" stroke-width="0.2"/>
</g>
</svg>
