<svg width="42" height="42" viewBox="0 0 42 42" fill="none" xmlns="http://www.w3.org/2000/svg">
<g id="Group 3911">
<g id="Ellipse 229">
<path id="Vector" d="M21 1.20829C10.0693 1.20829 1.20829 10.0693 1.20829 21C1.20829 31.9306 10.0693 40.7916 21 40.7916C31.9306 40.7916 40.7916 31.9306 40.7916 21C40.7916 10.0693 31.9306 1.20829 21 1.20829Z" stroke="white" stroke-opacity="0.5" stroke-width="0.5"/>
<path id="Vector_2" d="M29.9902 19.8096C30.0077 19.6934 30.0017 19.575 29.9727 19.4611C29.9436 19.3472 29.892 19.2401 29.8209 19.1459C29.7497 19.0516 29.6604 18.9722 29.5581 18.912C29.4557 18.8518 29.3423 18.8121 29.2244 18.7952L24.1026 18.0576L21.8132 13.4617C21.7306 13.3212 21.6119 13.2046 21.4691 13.1235C21.3262 13.0425 21.1643 12.9999 20.9995 13C20.8347 13.0001 20.6728 13.0429 20.5301 13.1241C20.3873 13.2052 20.2688 13.322 20.1863 13.4626L17.8978 18.0576L12.7761 18.7952C12.6089 18.8191 12.4518 18.8886 12.3226 18.9958C12.1934 19.103 12.0971 19.2436 12.0447 19.4019C11.9923 19.5601 11.9858 19.7296 12.026 19.8913C12.0662 20.0529 12.1514 20.2003 12.2721 20.3168L15.9818 23.9001L15.1063 28.9577C15.0786 29.1219 15.0979 29.2904 15.1621 29.4443C15.2263 29.5982 15.3328 29.7315 15.4696 29.8291C15.6064 29.9267 15.7681 29.9847 15.9365 29.9967C16.105 30.0088 16.2735 29.9743 16.4232 29.8971L21.0002 27.513L25.5763 29.8962C25.7258 29.9742 25.8944 30.0094 26.0631 29.9979C26.2319 29.9863 26.3939 29.9285 26.531 29.831C26.6682 29.7334 26.7748 29.6 26.839 29.4459C26.9032 29.2917 26.9223 29.1229 26.8942 28.9586L26.0186 23.9001L29.7292 20.3159C29.8698 20.1796 29.9615 20.0018 29.9902 19.8096ZM25.2147 23.426C25.1626 23.4765 25.1236 23.5387 25.101 23.6072C25.0784 23.6758 25.073 23.7487 25.0851 23.8198L26.0005 29.1069L21.2114 26.6129C21.1462 26.5795 21.0737 26.562 21.0002 26.562C20.9267 26.562 20.8543 26.5795 20.789 26.6129L15.9999 29.1078L16.9153 23.8198C16.9274 23.7487 16.922 23.6758 16.8994 23.6072C16.8769 23.5387 16.8379 23.4765 16.7857 23.426L12.9066 19.6783L18.2649 18.9068C18.3377 18.8961 18.4069 18.8682 18.4664 18.8254C18.5259 18.7827 18.574 18.7263 18.6066 18.6613L21.0002 13.8563L23.393 18.6621C23.4256 18.7273 23.4739 18.7837 23.5335 18.8265C23.5932 18.8693 23.6625 18.8971 23.7356 18.9077L29.0948 19.6783L25.2147 23.426Z" fill="white"/>
</g>
</g>
</svg>
