<svg width="27" height="27" viewBox="0 0 27 27" fill="none" xmlns="http://www.w3.org/2000/svg">
<g id="Icon feather-search">
<path id="Path 769" d="M22.1417 11.816C22.1417 13.8356 21.5428 15.8098 20.4208 17.489C19.2988 19.1682 17.704 20.477 15.8381 21.2498C13.9722 22.0226 11.9191 22.2248 9.9383 21.8307C7.95753 21.4366 6.1381 20.464 4.71011 19.0359C3.28212 17.6078 2.30969 15.7882 1.91581 13.8074C1.52193 11.8266 1.72428 9.77351 2.49728 7.90771C3.27028 6.04191 4.57921 4.44724 6.25853 3.32536C7.93785 2.20348 9.91214 1.60478 11.9317 1.60498C14.6397 1.60525 17.2366 2.68116 19.1514 4.59607C21.0661 6.51097 22.1417 9.10803 22.1417 11.816Z" stroke="black" stroke-width="3" stroke-linecap="round" stroke-linejoin="round"/>
<path id="Path 770" d="M24.6948 24.579L19.1428 19.027" stroke="black" stroke-width="3" stroke-linecap="round" stroke-linejoin="round"/>
</g>
</svg>
