<svg width="16" height="17" viewBox="0 0 16 17" fill="none" xmlns="http://www.w3.org/2000/svg">
<g id="Group 3016">
<g id="share">
<g id="Group 18">
<path id="Path 13" d="M13.0028 10.8693C12.5333 10.8692 12.0703 10.9728 11.6512 11.1714C11.2322 11.3701 10.8687 11.6584 10.5901 12.0131L5.88169 9.75517C6.07235 9.14609 6.03799 8.49441 5.78418 7.90596L10.7193 5.12339C11.2056 5.65779 11.888 6.00132 12.6314 6.08594C13.3748 6.17055 14.125 5.99008 14.7333 5.58026C15.3416 5.17044 15.7637 4.56117 15.916 3.87315C16.0682 3.18512 15.9396 2.46853 15.5555 1.86531C15.1713 1.26209 14.5598 0.816253 13.842 0.616108C13.1241 0.415963 12.3524 0.476112 11.6795 0.78464C11.0067 1.09317 10.4819 1.62757 10.2091 2.28199C9.93633 2.9364 9.93541 3.6631 10.2066 4.31813L5.25596 7.10757C4.84568 6.66792 4.29973 6.35902 3.69388 6.22372C3.08804 6.08842 2.45233 6.13343 1.87498 6.35252C1.29763 6.5716 0.807267 6.95389 0.471938 7.44633C0.136609 7.93877 -0.0270571 8.51695 0.00364949 9.10063C0.0343561 9.68431 0.257913 10.2445 0.6433 10.7036C1.02869 11.1627 1.55679 11.4978 2.15433 11.6624C2.75186 11.8271 3.3892 11.8131 3.97791 11.6225C4.56661 11.4318 5.07748 11.074 5.43962 10.5986L10.1342 12.8504C9.94703 13.4166 9.95507 14.0238 10.1572 14.5854C10.3593 15.1471 10.7453 15.6346 11.26 15.9783C11.7746 16.3221 12.3918 16.5046 13.0236 16.4999C13.6553 16.4952 14.2693 16.3035 14.7781 15.9521C15.2869 15.6007 15.6646 15.1076 15.8572 14.543C16.0498 13.9784 16.0475 13.3711 15.8508 12.8078C15.654 12.2445 15.2728 11.7538 14.7614 11.4057C14.25 11.0576 13.6346 10.8699 13.0028 10.8693ZM13.0028 1.42345C13.3984 1.42345 13.785 1.53352 14.1139 1.73973C14.4428 1.94594 14.6991 2.23903 14.8505 2.58194C15.0019 2.92486 15.0415 3.30219 14.9643 3.66623C14.8871 4.03026 14.6967 4.36465 14.417 4.62711C14.1373 4.88956 13.7809 5.0683 13.393 5.14071C13.0051 5.21312 12.6029 5.17595 12.2375 5.03391C11.8721 4.89187 11.5597 4.65134 11.34 4.34272C11.1202 4.03411 11.0029 3.67128 11.0029 3.30011C11.0036 2.80257 11.2145 2.32559 11.5894 1.97378C11.9643 1.62197 12.4726 1.42406 13.0028 1.42345ZM3.0074 10.838C2.61185 10.838 2.22519 10.7279 1.89631 10.5217C1.56743 10.3155 1.3111 10.0224 1.15973 9.67951C1.00836 9.3366 0.968755 8.95926 1.04592 8.59523C1.12309 8.23119 1.31356 7.8968 1.59325 7.63435C1.87294 7.37189 2.22929 7.19316 2.61723 7.12075C3.00518 7.04834 3.40729 7.0855 3.77272 7.22754C4.13816 7.36958 4.4505 7.61012 4.67025 7.91873C4.89 8.22735 5.0073 8.59018 5.0073 8.96135C5.00698 9.20828 4.95479 9.45274 4.85371 9.68074C4.75264 9.90874 4.60466 10.1158 4.41824 10.2901C4.23182 10.4644 4.01062 10.6025 3.76728 10.6965C3.52394 10.7905 3.26324 10.8386 3.00008 10.838H3.0074ZM13.0028 15.5613C12.6073 15.5613 12.2206 15.4512 11.8918 15.245C11.5629 15.0388 11.3065 14.7457 11.1552 14.4028C11.0038 14.0599 10.9642 13.6826 11.0414 13.3185C11.1185 12.9545 11.309 12.6201 11.5887 12.3576C11.8684 12.0952 12.2247 11.9164 12.6127 11.844C13.0006 11.7716 13.4027 11.8088 13.7682 11.9508C14.1336 12.0929 14.4459 12.3334 14.6657 12.642C14.8854 12.9506 15.0027 13.3135 15.0027 13.6846C15.0021 14.1822 14.7912 14.6592 14.4163 15.011C14.0414 15.3628 13.533 15.5607 13.0028 15.5613Z" fill="black"/>
</g>
</g>
</g>
</svg>
