<svg width="48" height="48" viewBox="0 0 48 48" fill="none" xmlns="http://www.w3.org/2000/svg">
<g id="Group 3017">
<g id="Ellipse 229">
<path id="Vector" d="M24 0.25C10.8832 0.25 0.25 10.8832 0.25 24C0.25 37.1168 10.8832 47.75 24 47.75C37.1168 47.75 47.75 37.1168 47.75 24C47.75 10.8832 37.1168 0.25 24 0.25Z" stroke="white" stroke-opacity="0.5" stroke-width="0.5"/>
</g>
<g id="Group 3016">
<g id="share">
<g id="Group 18">
<path id="Path 13" d="M30.0008 27.6175C29.423 27.6175 28.8533 27.7532 28.3376 28.0138C27.8219 28.2743 27.3746 28.6524 27.0318 29.1175L21.2378 26.1565C21.4724 25.3578 21.4301 24.5032 21.1178 23.7315L27.1908 20.0825C27.7892 20.7833 28.6289 21.2338 29.5437 21.3448C30.4585 21.4557 31.3816 21.2191 32.1302 20.6817C32.8788 20.1442 33.3982 19.3453 33.5856 18.443C33.7729 17.5407 33.6146 16.601 33.1419 15.81C32.6693 15.0189 31.9167 14.4343 31.0334 14.1718C30.15 13.9093 29.2003 13.9882 28.3724 14.3928C27.5444 14.7974 26.8987 15.4982 26.563 16.3564C26.2273 17.2146 26.2261 18.1675 26.5598 19.0265L20.4678 22.6845C19.9629 22.108 19.2911 21.7029 18.5456 21.5255C17.8 21.348 17.0177 21.4071 16.3073 21.6944C15.5968 21.9817 14.9934 22.483 14.5807 23.1288C14.1681 23.7745 13.9667 24.5327 14.0045 25.2982C14.0423 26.0636 14.3174 26.7983 14.7916 27.4003C15.2659 28.0023 15.9157 28.4417 16.651 28.6576C17.3863 28.8736 18.1706 28.8553 18.8951 28.6053C19.6195 28.3553 20.2481 27.886 20.6938 27.2625L26.4708 30.2155C26.2404 30.958 26.2503 31.7543 26.4991 32.4908C26.7478 33.2274 27.2227 33.8666 27.8561 34.3174C28.4894 34.7682 29.2489 35.0076 30.0263 35.0014C30.8037 34.9952 31.5593 34.7438 32.1854 34.283C32.8115 33.8222 33.2762 33.1755 33.5132 32.4351C33.7502 31.6947 33.7475 30.8984 33.5053 30.1597C33.2632 29.4209 32.7941 28.7774 32.1648 28.321C31.5355 27.8645 30.7782 27.6183 30.0008 27.6175ZM30.0008 15.2305C30.4875 15.2305 30.9633 15.3749 31.368 15.6453C31.7728 15.9157 32.0882 16.3 32.2745 16.7497C32.4607 17.1994 32.5095 17.6943 32.4145 18.1716C32.3195 18.649 32.0851 19.0875 31.741 19.4317C31.3968 19.7759 30.9583 20.0103 30.4809 20.1052C30.0035 20.2002 29.5087 20.1515 29.059 19.9652C28.6093 19.7789 28.225 19.4635 27.9545 19.0588C27.6841 18.6541 27.5398 18.1783 27.5398 17.6915C27.5406 17.0391 27.8001 16.4136 28.2615 15.9522C28.7228 15.4909 29.3483 15.2313 30.0008 15.2305ZM17.7008 27.5765C17.214 27.5765 16.7382 27.4322 16.3335 27.1618C15.9288 26.8914 15.6134 26.507 15.4271 26.0573C15.2408 25.6076 15.1921 25.1128 15.2871 24.6354C15.382 24.158 15.6164 23.7195 15.9606 23.3753C16.3048 23.0312 16.7433 22.7968 17.2207 22.7018C17.6981 22.6069 18.1929 22.6556 18.6426 22.8419C19.0923 23.0281 19.4766 23.3436 19.747 23.7483C20.0174 24.153 20.1618 24.6288 20.1618 25.1155C20.1614 25.4394 20.0972 25.7599 19.9728 26.0589C19.8484 26.3579 19.6663 26.6295 19.4369 26.858C19.2075 27.0866 18.9353 27.2677 18.6359 27.391C18.3364 27.5143 18.0156 27.5773 17.6918 27.5765H17.7008ZM30.0008 33.7705C29.514 33.7705 29.0382 33.6262 28.6335 33.3558C28.2288 33.0854 27.9134 32.701 27.7271 32.2513C27.5408 31.8016 27.4921 31.3068 27.5871 30.8294C27.682 30.352 27.9164 29.9135 28.2606 29.5693C28.6048 29.2252 29.0433 28.9908 29.5207 28.8958C29.9981 28.8009 30.4929 28.8496 30.9426 29.0359C31.3923 29.2221 31.7766 29.5376 32.047 29.9423C32.3174 30.347 32.4618 30.8228 32.4618 31.3095C32.461 31.962 32.2015 32.5875 31.7401 33.0488C31.2787 33.5102 30.6532 33.7697 30.0008 33.7705Z" fill="white"/>
</g>
</g>
</g>
</g>
</svg>
