<svg width="15" height="18" viewBox="0 0 15 18" fill="none" xmlns="http://www.w3.org/2000/svg">
<path id="Vector" d="M12.5 12.4333C11.8667 12.4333 11.3 12.6833 10.8667 13.075L4.925 9.61662C4.96667 9.42495 5 9.23328 5 9.03329C5 8.83329 4.96667 8.64162 4.925 8.44995L10.8 5.02495C11.25 5.44162 11.8417 5.69995 12.5 5.69995C13.8833 5.69995 15 4.58328 15 3.19995C15 1.81662 13.8833 0.699951 12.5 0.699951C11.1167 0.699951 10 1.81662 10 3.19995C10 3.39995 10.0333 3.59162 10.075 3.78328L4.2 7.20829C3.75 6.79162 3.15833 6.53328 2.5 6.53328C1.11667 6.53328 0 7.64995 0 9.03329C0 10.4166 1.11667 11.5333 2.5 11.5333C3.15833 11.5333 3.75 11.275 4.2 10.8583L10.1333 14.325C10.0917 14.5 10.0667 14.6833 10.0667 14.8666C10.0667 16.2083 11.1583 17.3 12.5 17.3C13.8417 17.3 14.9333 16.2083 14.9333 14.8666C14.9333 13.525 13.8417 12.4333 12.5 12.4333ZM12.5 2.36662C12.9583 2.36662 13.3333 2.74162 13.3333 3.19995C13.3333 3.65828 12.9583 4.03328 12.5 4.03328C12.0417 4.03328 11.6667 3.65828 11.6667 3.19995C11.6667 2.74162 12.0417 2.36662 12.5 2.36662ZM2.5 9.86662C2.04167 9.86662 1.66667 9.49162 1.66667 9.03329C1.66667 8.57495 2.04167 8.19995 2.5 8.19995C2.95833 8.19995 3.33333 8.57495 3.33333 9.03329C3.33333 9.49162 2.95833 9.86662 2.5 9.86662ZM12.5 15.7166C12.0417 15.7166 11.6667 15.3416 11.6667 14.8833C11.6667 14.425 12.0417 14.05 12.5 14.05C12.9583 14.05 13.3333 14.425 13.3333 14.8833C13.3333 15.3416 12.9583 15.7166 12.5 15.7166Z" fill="#717171"/>
</svg>
