<svg width="48" height="48" viewBox="0 0 48 48" fill="none" xmlns="http://www.w3.org/2000/svg">
<g id="Group 3473">
<g id="Ellipse 229">
<path id="Vector" d="M24 0.25C10.8832 0.25 0.25 10.8832 0.25 24C0.25 37.1168 10.8832 47.75 24 47.75C37.1168 47.75 47.75 37.1168 47.75 24C47.75 10.8832 37.1168 0.25 24 0.25Z" stroke="white" stroke-opacity="0.5" stroke-width="0.5"/>
<path id="Vector_2" d="M35.1575 22.897C35.1799 22.7452 35.1722 22.5905 35.1348 22.4417C35.0974 22.2929 35.031 22.153 34.9395 22.0299C34.8479 21.9067 34.7329 21.8029 34.6012 21.7243C34.4694 21.6457 34.3234 21.5938 34.1716 21.5717L27.5788 20.608L24.6318 14.6032C24.5254 14.4196 24.3726 14.2673 24.1888 14.1614C24.005 14.0555 23.7965 13.9999 23.5844 14C23.3722 14.0001 23.1638 14.056 22.9801 14.1621C22.7964 14.2682 22.6438 14.4207 22.5376 14.6044L19.5918 20.608L12.999 21.5717C12.7838 21.6029 12.5816 21.6937 12.4152 21.8338C12.2489 21.9738 12.125 22.1576 12.0575 22.3643C11.9901 22.5711 11.9818 22.7925 12.0335 23.0038C12.0852 23.215 12.1949 23.4075 12.3503 23.5597L17.1255 28.2415L15.9985 34.8495C15.9628 35.064 15.9877 35.2842 16.0703 35.4853C16.1529 35.6864 16.29 35.8605 16.4661 35.988C16.6422 36.1155 16.8504 36.1913 17.0672 36.207C17.2841 36.2227 17.501 36.1777 17.6936 36.0769L23.5853 32.9619L29.4758 36.0757C29.6682 36.1776 29.8852 36.2236 30.1024 36.2085C30.3196 36.1934 30.5282 36.1179 30.7047 35.9904C30.8812 35.863 31.0185 35.6887 31.1011 35.4873C31.1837 35.2859 31.2083 35.0654 31.1721 34.8507L30.0451 28.2415L34.8215 23.5585C35.0025 23.3805 35.1204 23.1482 35.1575 22.897ZM29.0103 27.622C28.9432 27.6881 28.893 27.7693 28.8639 27.8589C28.8349 27.9484 28.8279 28.0437 28.8435 28.1365L30.0218 35.0444L23.8571 31.7859C23.7732 31.7422 23.6799 31.7194 23.5853 31.7194C23.4907 31.7194 23.3974 31.7422 23.3135 31.7859L17.1488 35.0455L18.3271 28.1365C18.3427 28.0437 18.3357 27.9484 18.3067 27.8589C18.2776 27.7693 18.2274 27.6881 18.1603 27.622L13.167 22.7255L20.0643 21.7175C20.1581 21.7036 20.2471 21.6671 20.3237 21.6112C20.4003 21.5553 20.4622 21.4817 20.5041 21.3967L23.5853 15.1189L26.6653 21.3979C26.7073 21.483 26.7694 21.5567 26.8463 21.6126C26.9231 21.6685 27.0123 21.7049 27.1063 21.7187L34.0048 22.7255L29.0103 27.622Z" fill="#F7F7F7"/>
</g>
</g>
</svg>
