<svg width="22" height="21" viewBox="0 0 22 21" fill="none" xmlns="http://www.w3.org/2000/svg">
<path id="Icon awesome-sticky-note" d="M14.885 13.424H21.155V1.25302C21.156 1.10747 21.128 0.963185 21.0727 0.828524C21.0175 0.693862 20.9361 0.571503 20.8332 0.468536C20.7303 0.365569 20.6081 0.284043 20.4734 0.228681C20.3388 0.173318 20.1946 0.145222 20.049 0.146019H1.60702C1.46139 0.145089 1.31702 0.173087 1.18229 0.22839C1.04757 0.283693 0.925163 0.365199 0.822183 0.468179C0.719202 0.571159 0.637697 0.693563 0.582394 0.82829C0.527091 0.963018 0.499093 1.10739 0.500022 1.25302V19.696C0.499093 19.8417 0.527091 19.986 0.582394 20.1207C0.637697 20.2555 0.719202 20.3779 0.822183 20.4809C0.925163 20.5838 1.04757 20.6653 1.18229 20.7206C1.31702 20.776 1.46139 20.8039 1.60702 20.803H13.778V14.533C13.7783 14.2393 13.8949 13.9577 14.1024 13.7498C14.3099 13.542 14.5913 13.4248 14.885 13.424ZM20.833 15.96L16.315 20.478C16.212 20.5808 16.0897 20.6622 15.9552 20.7176C15.8207 20.7731 15.6765 20.8014 15.531 20.801H15.254V14.896H21.154V15.177C21.1549 15.3223 21.1269 15.4662 21.0718 15.6006C21.0167 15.735 20.9356 15.8572 20.833 15.96Z" fill="black"/>
</svg>
