<svg width="16" height="21" viewBox="0 0 16 21" fill="none" xmlns="http://www.w3.org/2000/svg">
<g id="Group 3021">
<g id="wishlist">
<g id="Group 4">
<g id="Group 3">
<path id="Path 1" d="M15.527 5.592C15.4947 5.51343 15.4471 5.44205 15.387 5.382L10.2 0.191C10.0766 0.0685454 9.90982 -0.000119705 9.736 1.56658e-07H1.3C0.955222 1.56658e-07 0.624557 0.136964 0.38076 0.380761C0.136963 0.624559 0 0.955219 0 1.3V19.472C0 19.8168 0.136963 20.1474 0.38076 20.3912C0.624557 20.635 0.955222 20.772 1.3 20.772H14.93C15.1021 20.772 15.2672 20.7036 15.3889 20.5819C15.5106 20.4602 15.579 20.2951 15.579 20.123V5.842C15.5784 5.75604 15.5607 5.67106 15.527 5.592ZM10.385 2.216L13.362 5.193H10.385V2.216ZM14.28 19.472H1.3V1.3H9.089V5.193C9.089 5.53778 9.22597 5.86844 9.46976 6.11224C9.71356 6.35604 10.0442 6.493 10.389 6.493H14.28V19.472Z" fill="white"/>
</g>
</g>
<g id="Group 6">
<g id="Group 5">
<path id="Path 2" d="M7.13775 3.89453H3.24375C3.07136 3.89453 2.90602 3.96302 2.78413 4.08492C2.66223 4.20681 2.59375 4.37214 2.59375 4.54453C2.59375 4.71692 2.66223 4.88225 2.78413 5.00415C2.90602 5.12605 3.07136 5.19453 3.24375 5.19453H7.13775C7.31014 5.19453 7.47548 5.12605 7.59737 5.00415C7.71927 4.88225 7.78774 4.71692 7.78774 4.54453C7.78774 4.37214 7.71927 4.20681 7.59737 4.08492C7.47548 3.96302 7.31014 3.89453 7.13775 3.89453Z" fill="white"/>
</g>
</g>
<g id="Group 8">
<g id="Group 7">
<path id="Path 3" d="M7.13775 6.49121H3.24375C3.07136 6.49121 2.90602 6.5597 2.78413 6.68159C2.66223 6.80349 2.59375 6.96881 2.59375 7.1412C2.59375 7.3136 2.66223 7.47893 2.78413 7.60083C2.90602 7.72273 3.07136 7.79121 3.24375 7.79121H7.13775C7.31014 7.79121 7.47548 7.72273 7.59737 7.60083C7.71927 7.47893 7.78774 7.3136 7.78774 7.1412C7.78774 6.96881 7.71927 6.80349 7.59737 6.68159C7.47548 6.5597 7.31014 6.49121 7.13775 6.49121Z" fill="white"/>
</g>
</g>
</g>
</g>
</svg>
