<svg width="64" height="64" viewBox="0 0 64 64" fill="none" xmlns="http://www.w3.org/2000/svg">
<g id="solar:upload-linear">
<g id="Group">
<path id="Vector" d="M45.3335 24.0049C51.1335 24.0369 54.2748 24.2955 56.3228 26.3435C58.6668 28.6875 58.6668 32.4582 58.6668 39.9996V42.6662C58.6668 50.2102 58.6668 53.9809 56.3228 56.3249C53.9815 58.6662 50.2082 58.6662 42.6668 58.6662H21.3335C13.7922 58.6662 10.0188 58.6662 7.6775 56.3249C5.3335 53.9782 5.3335 50.2102 5.3335 42.6662V39.9996C5.3335 32.4582 5.3335 28.6875 7.6775 26.3435C9.7255 24.2955 12.8668 24.0369 18.6668 24.0049" stroke="black" stroke-width="4" stroke-linecap="round"/>
<path id="Vector_2" d="M32 39.9997V5.33301M32 5.33301L40 14.6663M32 5.33301L24 14.6663" stroke="black" stroke-width="4" stroke-linecap="round" stroke-linejoin="round"/>
</g>
</g>
</svg>
