<svg width="8" height="8" viewBox="0 0 8 8" fill="none" xmlns="http://www.w3.org/2000/svg">
<path id="Icon awesome-user-alt" d="M3.99978 4.50003C4.44479 4.50003 4.8798 4.36807 5.24982 4.12083C5.61983 3.8736 5.90822 3.52219 6.07852 3.11106C6.24882 2.69992 6.29337 2.24752 6.20656 1.81106C6.11974 1.3746 5.90545 0.973685 5.59078 0.659015C5.27611 0.344345 4.87519 0.130052 4.43873 0.0432344C4.00227 -0.0435829 3.54987 0.000974898 3.13873 0.171273C2.7276 0.341571 2.37619 0.629961 2.12896 0.999974C1.88172 1.36999 1.74976 1.805 1.74976 2.25001C1.74988 2.84672 1.98697 3.41895 2.40891 3.84088C2.83084 4.26282 3.40307 4.49991 3.99978 4.50003ZM5.99989 4.99983H5.1411C4.78371 5.16482 4.39476 5.25026 4.00112 5.25026C3.60748 5.25026 3.21853 5.16482 2.86113 4.99983H2.00011C1.73744 4.99977 1.47732 5.05147 1.23463 5.15196C0.991941 5.25246 0.771427 5.39978 0.585688 5.58552C0.399949 5.77126 0.252624 5.99177 0.15213 6.23446C0.0516357 6.47716 -5.86811e-05 6.73727 4.99881e-08 6.99994V7.24985C4.99881e-08 7.4488 0.0790339 7.6396 0.219715 7.78028C0.360396 7.92097 0.551201 8 0.750154 8H7.24985C7.4488 8 7.6396 7.92097 7.78028 7.78028C7.92097 7.6396 8 7.4488 8 7.24985V6.99994C8.00006 6.73727 7.94836 6.47716 7.84787 6.23446C7.74738 5.99177 7.60005 5.77126 7.41431 5.58552C7.22857 5.39978 7.00806 5.25246 6.76537 5.15196C6.52268 5.05147 6.26256 4.99977 5.99989 4.99983Z" fill="url(#paint0_linear_127_27277)"/>
<defs>
<linearGradient id="paint0_linear_127_27277" x1="4" y1="0" x2="4" y2="8" gradientUnits="userSpaceOnUse">
<stop stop-color="#F5F1EE"/>
<stop offset="1" stop-color="#E2DCD6"/>
</linearGradient>
</defs>
</svg>
