<svg width="23" height="23" viewBox="0 0 23 23" fill="none" xmlns="http://www.w3.org/2000/svg">
<path id="Icon awesome-user-alt" d="M11.344 13.074C12.606 13.074 13.8397 12.6998 14.8891 11.9986C15.9384 11.2975 16.7563 10.3009 17.2393 9.13492C17.7222 7.96894 17.8486 6.68594 17.6024 5.44814C17.3562 4.21035 16.7484 3.07337 15.856 2.18097C14.9636 1.28857 13.8267 0.680836 12.5889 0.434624C11.3511 0.188411 10.0681 0.314777 8.9021 0.797739C7.73612 1.2807 6.73955 2.09857 6.03839 3.14792C5.33724 4.19727 4.963 5.43097 4.963 6.69301C4.96353 8.3852 5.63598 10.0079 6.83254 11.2045C8.02909 12.401 9.65182 13.0735 11.344 13.074ZM17.016 14.492H14.575C13.5621 14.9591 12.4599 15.201 11.3445 15.201C10.2291 15.201 9.12691 14.9591 8.114 14.492H5.672C4.16769 14.492 2.725 15.0896 1.66129 16.1533C0.597584 17.217 0 18.6597 0 20.164L0 20.873C0.000264991 21.4371 0.224444 21.9779 0.623277 22.3767C1.02211 22.7756 1.56297 22.9998 2.127 23H20.561C21.125 22.9998 21.6659 22.7756 22.0647 22.3767C22.4636 21.9779 22.6877 21.4371 22.688 20.873V20.164C22.688 19.4192 22.5413 18.6816 22.2562 17.9934C21.9712 17.3053 21.5534 16.68 21.0267 16.1533C20.5 15.6266 19.8747 15.2088 19.1866 14.9238C18.4984 14.6387 17.7609 14.492 17.016 14.492Z" fill="black"/>
</svg>
